<svg id="SvgjsSvg1001" width="288" height="288" xmlns="http://www.w3.org/2000/svg" version="1.1" xmlns:xlink="http://www.w3.org/1999/xlink" xmlns:svgjs="http://svgjs.com/svgjs"><defs id="SvgjsDefs1002"></defs><g id="SvgjsG1008" transform="matrix(0.9167,0,0,0.9167,12.370103384399414,11.662813397121425)"><svg xmlns="http://www.w3.org/2000/svg" id="Layer_1" width="288" height="288" x="0" y="0" version="1.0" viewBox="0 0 32 32" xml:space="preserve"><path id="circle7271" fill="#000000" fill-opacity="1" fill-rule="nonzero" stroke="none" stroke-dasharray="none" stroke-dashoffset="0" stroke-linecap="round" stroke-linejoin="round" stroke-miterlimit="4" stroke-opacity="1" stroke-width="1" d="M 14.667969 1.3886719 C 13.201862 1.3886715 11.787587 1.6111412 10.457031 2.0253906 C 9.1270108 2.4395619 7.8803483 3.0447638 6.75 3.8085938 C 6.7492611 3.8090929 6.7487856 3.8100476 6.7480469 3.8105469 C 6.6534442 3.874501 6.5675688 3.9494653 6.4746094 4.015625 C 6.1973017 4.2129443 5.9202212 4.4087203 5.6582031 4.625 C 5.3086254 4.9135719 4.9726295 5.2207738 4.6523438 5.5410156 C 4.1484534 6.0449111 3.6952854 6.597143 3.2714844 7.171875 C 3.156313 7.3280709 3.030697 7.4757263 2.921875 7.6367188 C 2.9215822 7.6371519 2.9221678 7.6382387 2.921875 7.6386719 C 2.667458 8.0151543 2.4289399 8.4036762 2.2109375 8.8046875 C 2.2106712 8.8051773 2.2112038 8.8061507 2.2109375 8.8066406 C 2.1401373 8.9369147 2.0843695 9.0762882 2.0175781 9.2089844 C 1.6726902 9.8941256 1.3680494 10.602666 1.1367188 11.345703 C 0.72247975 12.676245 0.49999976 14.090573 0.5 15.556641 C 0.49999968 17.022708 0.72247979 18.437036 1.1367188 19.767578 C 1.3680494 20.510616 1.6726902 21.219156 2.0175781 21.904297 C 2.0844127 22.037068 2.1400896 22.176295 2.2109375 22.306641 C 2.2112167 22.307154 2.2106582 22.30808 2.2109375 22.308594 C 2.4289402 22.709561 2.667464 23.098171 2.921875 23.474609 C 3.0309894 23.636075 3.155984 23.784764 3.2714844 23.941406 C 3.6952854 24.516138 4.1484533 25.06837 4.6523438 25.572266 C 4.9729173 25.892842 5.3082767 26.199439 5.6582031 26.488281 C 5.6585745 26.488588 5.6597848 26.487975 5.6601562 26.488281 C 6.0097126 26.776754 6.3715829 27.048301 6.7480469 27.302734 C 7.5025979 27.812832 8.3079201 28.252305 9.15625 28.611328 C 9.5799435 28.790674 10.013513 28.949808 10.457031 29.087891 C 10.457618 29.088073 10.458398 29.087708 10.458984 29.087891 C 10.90193 29.22573 11.354113 29.34319 11.814453 29.4375 C 11.815075 29.437627 11.815784 29.437373 11.816406 29.4375 C 12.276764 29.531749 12.745326 29.604 13.220703 29.652344 C 13.697383 29.700848 14.180535 29.724653 14.669922 29.724609 C 14.694328 29.724606 14.71781 29.72083 14.742188 29.720703 C 16.056445 29.713862 17.324322 29.520036 18.53125 29.177734 C 18.766484 29.111019 18.998414 29.037388 19.228516 28.958984 C 19.98767 28.700314 20.724704 28.391507 21.419922 28.013672 C 22.222079 27.577634 22.978468 27.065262 23.677734 26.488281 C 23.678443 26.487696 23.678979 26.486913 23.679688 26.486328 C 24.029615 26.197482 24.36497 25.892843 24.685547 25.572266 C 25.326701 24.931112 25.906556 24.228393 26.416016 23.474609 C 27.434935 21.967042 28.171039 20.253893 28.548828 18.410156 C 28.737752 17.488247 28.837891 16.534019 28.837891 15.556641 A 0.50005 0.50005 0 0 0 28.837891 15.552734 C 28.837885 15.552084 28.837897 15.551431 28.837891 15.550781 C 28.834813 15.239953 28.808398 14.930634 28.785156 14.621094 L 32.128906 13.726562 A 0.50005 0.50005 0 0 0 32.417969 12.96875 L 31.208984 11.125 L 31.333984 8.9257812 A 0.50005 0.50005 0 0 0 31.333984 8.9238281 A 0.50005 0.50005 0 0 0 31.333984 8.875 A 0.50005 0.50005 0 0 0 31.333984 8.8730469 A 0.50005 0.50005 0 0 0 31.330078 8.8261719 A 0.50005 0.50005 0 0 0 31.330078 8.8242188 A 0.50005 0.50005 0 0 0 31.320312 8.7773438 A 0.50005 0.50005 0 0 0 31.320312 8.7753906 A 0.50005 0.50005 0 0 0 31.316406 8.7617188 A 0.50005 0.50005 0 0 0 31.304688 8.7265625 A 0.50005 0.50005 0 0 0 31.287109 8.6835938 A 0.50005 0.50005 0 0 0 31.285156 8.6816406 A 0.50005 0.50005 0 0 0 31.263672 8.6386719 A 0.50005 0.50005 0 0 0 31.261719 8.6367188 A 0.50005 0.50005 0 0 0 31.253906 8.625 A 0.50005 0.50005 0 0 0 31.234375 8.5957031 A 0.50005 0.50005 0 0 0 31.203125 8.5585938 A 0.50005 0.50005 0 0 0 31.203125 8.5566406 A 0.50005 0.50005 0 0 0 31.167969 8.5234375 A 0.50005 0.50005 0 0 0 31.166016 8.5214844 A 0.50005 0.50005 0 0 0 31.128906 8.4921875 A 0.50005 0.50005 0 0 0 31.126953 8.4902344 A 0.50005 0.50005 0 0 0 31.056641 8.4492188 A 0.50005 0.50005 0 0 0 31.042969 8.4414062 A 0.50005 0.50005 0 0 0 31.041016 8.4414062 A 0.50005 0.50005 0 0 0 31.023438 8.4335938 A 0.50005 0.50005 0 0 0 30.996094 8.4238281 A 0.50005 0.50005 0 0 0 30.904297 8.4023438 A 0.50005 0.50005 0 0 0 30.898438 8.4003906 A 0.50005 0.50005 0 0 0 30.896484 8.4003906 A 0.50005 0.50005 0 0 0 30.847656 8.3964844 A 0.50005 0.50005 0 0 0 30.705078 8.4140625 L 27.357422 9.3105469 C 25.283456 5.0914743 21.274654 2.2025295 16.6875 1.5371094 C 16.489349 1.507981 16.288171 1.4913599 16.087891 1.4707031 C 15.959415 1.4574522 15.832405 1.4374481 15.703125 1.4277344 C 15.694059 1.4270607 15.684851 1.4264376 15.675781 1.4257812 C 15.343038 1.4014383 15.007298 1.3891104 14.669922 1.3886719 A 0.50005 0.50005 0 0 0 14.667969 1.3886719 z M 14.667969 2.3886719 C 14.668623 2.3886727 14.669268 2.3886709 14.669922 2.3886719 C 14.99101 2.3891364 15.310095 2.4023163 15.626953 2.4257812 C 15.627599 2.4258291 15.628261 2.4257333 15.628906 2.4257812 C 15.921507 2.4478573 16.212185 2.4800052 16.5 2.5214844 C 20.70043 3.1268383 24.35354 5.7684414 26.314453 9.5996094 A 0.50005 0.50005 0 0 0 26.191406 9.6875 A 0.50005 0.50005 0 0 0 26.189453 9.6894531 A 0.50005 0.50005 0 0 0 26.158203 9.7226562 A 0.50005 0.50005 0 0 0 26.158203 9.7246094 A 0.50005 0.50005 0 0 0 26.126953 9.7617188 A 0.50005 0.50005 0 0 0 26.126953 9.7636719 A 0.50005 0.50005 0 0 0 26.101562 9.8046875 A 0.50005 0.50005 0 0 0 26.101562 9.8066406 A 0.50005 0.50005 0 0 0 26.080078 9.8496094 A 0.50005 0.50005 0 0 0 26.078125 9.8515625 A 0.50005 0.50005 0 0 0 26.0625 9.8964844 A 0.50005 0.50005 0 0 0 26.060547 9.8984375 A 0.50005 0.50005 0 0 0 26.052734 9.9316406 A 0.50005 0.50005 0 0 0 26.048828 9.9433594 A 0.50005 0.50005 0 0 0 26.048828 9.9453125 A 0.50005 0.50005 0 0 0 26.041016 9.9941406 A 0.50005 0.50005 0 0 0 26.041016 9.9960938 A 0.50005 0.50005 0 0 0 26.039062 10.007812 A 0.50005 0.50005 0 0 0 26.039062 10.017578 A 0.50005 0.50005 0 0 0 26.039062 10.019531 L 25.925781 12.003906 L 25.654297 12.078125 C 24.177243 7.4182879 19.81544 4.0351563 14.669922 4.0351562 C 8.3117913 4.0351558 3.1464844 9.1986733 3.1464844 15.556641 C 3.1464844 21.914608 8.3117912 27.080079 14.669922 27.080078 C 21.028052 27.080078 26.191406 21.914607 26.191406 15.556641 C 26.191406 14.692995 26.088801 13.85454 25.908203 13.044922 L 26.173828 12.974609 L 27.285156 14.667969 A 0.50005 0.50005 0 0 0 27.466797 14.833984 A 0.50005 0.50005 0 0 0 27.46875 14.833984 A 0.50005 0.50005 0 0 0 27.798828 14.884766 C 27.812698 15.11048 27.835661 15.336305 27.837891 15.5625 C 27.837041 17.381354 27.468921 19.112548 26.802734 20.6875 C 26.802497 20.688061 26.802972 20.688893 26.802734 20.689453 C 26.136572 22.263755 25.171067 23.680978 23.980469 24.871094 C 21.598422 27.251713 18.30755 28.724078 14.669922 28.724609 C 14.214312 28.72465 13.763939 28.701259 13.320312 28.65625 C 12.877988 28.611403 12.441887 28.54447 12.013672 28.457031 C 12.013049 28.456904 12.012341 28.457159 12.011719 28.457031 C 11.583523 28.369531 11.163849 28.260714 10.751953 28.132812 C 10.751366 28.13263 10.750587 28.132995 10.75 28.132812 C 10.338118 28.00485 9.9344058 27.857581 9.5410156 27.691406 C 9.5404729 27.691177 9.5396052 27.691636 9.5390625 27.691406 C 9.1456821 27.525171 8.7633208 27.338979 8.390625 27.136719 C 8.3901341 27.136452 8.3891628 27.136985 8.3886719 27.136719 C 8.1624423 27.013906 7.9484266 26.871768 7.7304688 26.736328 C 7.5887579 26.648249 7.4407777 26.569808 7.3027344 26.476562 C 6.9532514 26.240561 6.6154721 25.988298 6.2910156 25.720703 C 6.2903058 25.720118 6.2897722 25.719336 6.2890625 25.71875 C 5.9646701 25.451095 5.6526484 25.168153 5.3554688 24.871094 C 5.3548186 24.870444 5.3541657 24.869791 5.3535156 24.869141 C 4.7586485 24.274114 4.2206453 23.621615 3.7480469 22.921875 C 3.5114894 22.571623 3.2905192 22.209131 3.0878906 21.835938 C 2.6826335 21.089551 2.3481493 20.299573 2.0917969 19.474609 C 1.7072683 18.237164 1.5000336 16.921434 1.5 15.556641 C 1.4999999 15.10173 1.5234489 14.651943 1.5683594 14.208984 C 1.6582214 13.323026 1.8354445 12.463636 2.0917969 11.638672 C 2.3481492 10.813708 2.6826335 10.02373 3.0878906 9.2773438 C 3.2905192 8.9041505 3.5114894 8.5416583 3.7480469 8.1914062 C 4.2206454 7.4916667 4.7586484 6.8391672 5.3535156 6.2441406 C 5.6512743 5.9463022 5.9639647 5.6628398 6.2890625 5.3945312 C 6.2897647 5.3939518 6.2903133 5.3931574 6.2910156 5.3925781 C 6.6154684 5.1249159 6.9532516 4.8727878 7.3027344 4.6367188 C 7.3034739 4.6362193 7.3039478 4.6352649 7.3046875 4.6347656 C 7.4419947 4.5420587 7.5895345 4.4645494 7.7304688 4.3769531 C 9.7461012 3.1244338 12.117555 2.3886713 14.667969 2.3886719 z M 14.669922 5.0351562 C 19.362976 5.0351562 23.326711 8.0985802 24.685547 12.335938 L 23.089844 12.765625 C 21.916962 9.2348286 18.590894 6.6796874 14.669922 6.6796875 C 9.7728912 6.6796873 5.7910157 10.659731 5.7910156 15.556641 C 5.7910156 20.45355 9.7728911 24.433594 14.669922 24.433594 C 19.566952 24.433594 23.546875 20.45355 23.546875 15.556641 C 23.546875 14.930489 23.481161 14.320235 23.357422 13.730469 L 24.945312 13.304688 C 25.103263 14.030544 25.191406 14.782947 25.191406 15.556641 C 25.191406 21.374151 20.487628 26.080078 14.669922 26.080078 C 8.8522154 26.080078 4.1464844 21.374152 4.1464844 15.556641 C 4.1464844 9.7391293 8.8522155 5.035156 14.669922 5.0351562 z M 14.669922 7.6796875 C 18.138543 7.6796874 21.071215 9.9150514 22.125 13.023438 L 20.527344 13.451172 C 19.661672 11.049564 17.366447 9.3261719 14.669922 9.3261719 C 11.233992 9.3261718 8.4375002 12.120788 8.4375 15.556641 C 8.4375001 18.992493 11.233992 21.789063 14.669922 21.789062 C 18.105852 21.789064 20.900391 18.992493 20.900391 15.556641 C 20.900391 15.167238 20.859672 14.787764 20.791016 14.417969 L 22.390625 13.988281 C 22.492597 14.494898 22.546875 15.019586 22.546875 15.556641 C 22.546875 19.913094 19.026528 23.433594 14.669922 23.433594 C 10.313315 23.433594 6.7910156 19.913094 6.7910156 15.556641 C 6.7910157 11.200187 10.313315 7.6796873 14.669922 7.6796875 z M 30.296875 9.5605469 L 30.201172 11.232422 L 30.201172 11.234375 A 0.50005 0.50005 0 0 0 30.201172 11.283203 A 0.50005 0.50005 0 0 0 30.201172 11.285156 A 0.50005 0.50005 0 0 0 30.205078 11.332031 A 0.50005 0.50005 0 0 0 30.205078 11.333984 A 0.50005 0.50005 0 0 0 30.214844 11.380859 A 0.50005 0.50005 0 0 0 30.214844 11.382812 A 0.50005 0.50005 0 0 0 30.230469 11.429688 A 0.50005 0.50005 0 0 0 30.230469 11.431641 A 0.50005 0.50005 0 0 0 30.25 11.474609 A 0.50005 0.50005 0 0 0 30.25 11.476562 A 0.50005 0.50005 0 0 0 30.273438 11.519531 A 0.50005 0.50005 0 0 0 30.273438 11.521484 A 0.50005 0.50005 0 0 0 30.283203 11.535156 A 0.50005 0.50005 0 0 0 30.283203 11.537109 L 31.203125 12.939453 L 28.148438 13.757812 L 28.146484 13.757812 A 0.50005 0.50005 0 0 0 28.130859 13.761719 L 27.923828 13.818359 L 26.914062 12.275391 L 27.017578 10.4375 L 27.220703 10.382812 L 27.222656 10.382812 L 30.296875 9.5605469 z M 14.669922 10.326172 C 16.914328 10.326172 18.816121 11.731506 19.560547 13.710938 L 17.958984 14.138672 C 17.407033 12.866601 16.140772 11.970703 14.669922 11.970703 C 12.695093 11.970703 11.082032 13.581846 11.082031 15.556641 C 11.082031 17.531436 12.695092 19.144531 14.669922 19.144531 C 16.644752 19.144531 18.25586 17.531436 18.255859 15.556641 C 18.255859 15.402782 18.229907 15.256276 18.210938 15.107422 L 19.822266 14.677734 C 19.870493 14.96392 19.900391 15.256429 19.900391 15.556641 C 19.900391 18.452037 17.565427 20.789063 14.669922 20.789062 C 11.774416 20.789064 9.4375001 18.452037 9.4375 15.556641 C 9.4375002 12.661244 11.774416 10.326172 14.669922 10.326172 z M 14.669922 12.970703 C 15.686688 12.970703 16.551489 13.554542 16.974609 14.402344 L 15.277344 14.857422 C 15.111952 14.713374 14.903295 14.617188 14.669922 14.617188 C 14.156193 14.617188 13.728516 15.042903 13.728516 15.556641 C 13.728516 16.070378 14.156193 16.498047 14.669922 16.498047 C 15.090377 16.498047 15.437276 16.205979 15.554688 15.820312 L 17.236328 15.369141 C 17.240871 15.432174 17.255859 15.492395 17.255859 15.556641 C 17.25586 16.99098 16.104327 18.144531 14.669922 18.144531 C 13.235516 18.144531 12.082031 16.99098 12.082031 15.556641 C 12.082032 14.122302 13.235517 12.970703 14.669922 12.970703 z " baseline-shift="baseline" clip-rule="nonzero" color="#000" color-interpolation="sRGB" color-interpolation-filters="linearRGB" color-rendering="auto" direction="ltr" display="inline" enable-background="accumulate" font-family="sans-serif" font-size="medium" font-stretch="normal" font-style="normal" font-variant="normal" font-weight="400" image-rendering="auto" letter-spacing="normal" opacity="1" overflow="visible" shape-rendering="auto" text-anchor="start" text-decoration="none" text-rendering="auto" visibility="visible" style="line-height:normal;text-indent:0;text-align:start;text-decoration-line:none;text-decoration-style:solid;text-decoration-color:#000;text-transform:none;block-progression:tb;white-space:normal;isolation:auto;mix-blend-mode:normal;solid-color:#000;solid-opacity:1" word-spacing="normal" writing-mode="lr-tb" class="color000 svgShape"></path></svg></g></svg>